HIERARCHY
ROOT Hips
{
  OFFSET 13.6774 106.653 -34.4427
  CHANNELS 6 Xposition Yposition Zposition Zrotation Xrotation Yrotation
  JOINT ToSpine
  {
    OFFSET -2.69724 7.43032 -0.144315
    CHANNELS 3 Zrotation Xrotation Yrotation
    JOINT Spine
    {
      OFFSET -0.0310711 10.7595 1.96963
      CHANNELS 3 Zrotation Xrotation Yrotation
      JOINT Spine1
      {
        OFFSET 19.9056 3.91189 0.764692
        CHANNELS 3 Zrotation Xrotation Yrotation
        JOINT Neck
        {
          OFFSET 25.9749 7.03908 -0.130764
          CHANNELS 3 Zrotation Xrotation Yrotation
          JOINT Head
          {
            OFFSET 9.52751 0.295786 -0.907742
            CHANNELS 3 Zrotation Xrotation Yrotation
            End Site
            {
              OFFSET 16.4037 0.713936 2.7358
            }
          }
        }
        JOINT LeftShoulder
        {
          OFFSET 17.7449 4.33886 11.7777
          CHANNELS 3 Zrotation Xrotation Yrotation
          JOINT LeftArm
          {
            OFFSET 0.911315 1.27913 9.80584
            CHANNELS 3 Zrotation Xrotation Yrotation
            JOINT LeftForeArm
            {
              OFFSET 28.6126 1.18197 -3.53199
              CHANNELS 3 Zrotation Xrotation Yrotation
              JOINT LeftHand
              {
                OFFSET 27.5088 0.0218783 0.327423
                CHANNELS 3 Zrotation Xrotation Yrotation
                End Site
                {
                  OFFSET 18.6038 -0.000155887 0.382096
                }
              }
            }
          }
        }
        JOINT RightShoulder
        {
          OFFSET 17.1009 2.89543 -12.2328
          CHANNELS 3 Zrotation Xrotation Yrotation
          JOINT RightArm
          {
            OFFSET 1.4228 0.178766 -10.211
            CHANNELS 3 Zrotation Xrotation Yrotation
            JOINT RightForeArm
            {
              OFFSET 28.733 1.87905 2.64907
              CHANNELS 3 Zrotation Xrotation Yrotation
              JOINT RightHand
              {
                OFFSET 27.4588 0.290562 -0.101845
                CHANNELS 3 Zrotation Xrotation Yrotation
                End Site
                {
                  OFFSET 17.8396 -0.255518 -0.000602873
                }
              }
            }
          }
        }
      }
    }
  }
  JOINT LeftUpLeg
  {
    OFFSET -5.61296 -2.22332 -10.2353
    CHANNELS 3 Zrotation Xrotation Yrotation
    JOINT LeftLeg
    {
      OFFSET 2.56703 -44.7417 -7.93097
      CHANNELS 3 Zrotation Xrotation Yrotation
      JOINT LeftFoot
      {
        OFFSET 3.16933 -46.5642 -3.96578
        CHANNELS 3 Zrotation Xrotation Yrotation
        JOINT LeftToeBase
        {
          OFFSET 0.346054 -6.02161 12.8035
          CHANNELS 3 Zrotation Xrotation Yrotation
          End Site
          {
            OFFSET 0.134235 -1.35082 5.13018
          }
        }
      }
    }
  }
  JOINT RightUpLeg
  {
    OFFSET -5.7928 -1.72406 10.6446
    CHANNELS 3 Zrotation Xrotation Yrotation
    JOINT RightLeg
    {
      OFFSET -2.57161 -44.7178 -7.85259
      CHANNELS 3 Zrotation Xrotation Yrotation
      JOINT RightFoot
      {
        OFFSET -3.10148 -46.5936 -4.03391
        CHANNELS 3 Zrotation Xrotation Yrotation
        JOINT RightToeBase
        {
          OFFSET -0.0828122 -6.13587 12.8035
          CHANNELS 3 Zrotation Xrotation Yrotation
          End Site
          {
            OFFSET -0.131328 -1.35082 5.13018
          }
        }
      }
    }
  }
}
MOTION
Frames: 17
Frame Time: 0.03333333333333333
0.0000 93.1000 0.0000 54.7676 -19.7925 -14.9442 -70.9590 -0.1153 87.8070 146.9233 54.8199 -56.5633 -10.9399 19.2960 3.2032 -164.4501 -4.2111 -164.0515 -141.1205 35.5021 -173.7222 -1.5932 -19.6571 -39.6829 -73.8034 39.7593 -78.0616 8.8883 12.0585 -37.6939 -0.5476 0.0071 0.3533 -2.2380 6.9363 37.5141 -90.7542 -22.5949 81.0713 1.3473 -2.2214 53.7109 0.2728 -0.2750 0.2301 2.9173 14.6978 91.3044 -40.3305 82.7078 27.2447 -1.4119 -13.4372 -1.3961 7.6761 -18.2563 21.5476 -15.5199 -10.0847 113.8230 6.8250 64.8535 1.9729 -4.3369 -19.1145 1.1936 1.2359 -25.6765 -19.9549 
0.0000 93.1000 0.0000 55.3479 -17.9925 -13.2072 -70.9462 -0.0739 87.8065 146.9691 55.4657 -57.3411 -11.1416 19.9433 2.7746 -164.4788 -2.4013 -165.2324 -140.6679 37.0134 -173.0989 -1.6694 -19.0812 -38.7303 -66.5755 43.9727 -80.2733 7.0804 10.2982 -36.5569 -0.2465 0.2102 0.0400 -2.2243 6.9075 38.0579 -90.0323 -26.1953 82.2830 5.5084 -3.6725 62.4529 0.1371 -0.0133 0.1231 4.6737 16.1100 91.0368 -32.9187 81.9501 23.6794 -0.6534 -12.9890 -1.7053 7.4175 -18.1533 20.4413 -17.5944 -12.9695 112.5213 6.5492 64.3577 2.1532 -4.4087 -20.9141 1.4060 0.7932 -25.9569 -19.1016 
0.0000 93.1000 0.0000 56.5170 -15.5800 -10.4397 -70.9366 -0.1427 87.8240 146.7980 56.7878 -59.1102 -11.8225 21.1740 2.9498 -165.8063 -1.4779 -168.3636 -141.6355 38.0715 -173.0249 -1.1175 -17.8158 -35.9625 -60.1782 48.8363 -81.0899 8.0752 10.8764 -38.5687 -0.4876 -0.1829 0.0804 -2.2154 7.0051 38.4356 -88.5806 -29.5454 84.3199 10.4915 -4.1893 72.7495 0.2765 -0.4471 0.2506 6.7907 18.1593 91.1369 -33.0977 82.7354 27.9011 -0.3062 -12.9670 -1.3739 5.7011 -15.8232 22.3509 -22.4209 -15.0976 109.7765 6.1484 63.2762 1.6607 -3.2673 -23.4436 1.2870 1.4274 -26.3244 -19.6449 
0.0000 93.1000 0.0000 57.7749 -11.7783 -7.4004 -70.9282 -0.2067 87.8457 145.8421 58.5805 -58.5132 -12.2197 21.8388 2.9241 -166.8569 -0.5258 -172.4045 -142.7840 38.3378 -173.2739 -0.4289 -16.0026 -32.9159 -57.3579 54.7946 -77.0973 10.1824 9.6502 -45.7595 -0.6393 -0.5231 0.1534 -2.1490 6.6917 37.9535 -85.4431 -34.3561 85.0125 17.6390 -2.6011 82.9285 0.5403 -0.8558 0.4347 9.4305 20.9687 92.9230 -38.5329 83.6156 34.4586 0.1566 -11.3737 -1.0145 5.4380 -16.2585 23.1960 -29.2295 -17.7797 105.6585 5.4276 58.5599 1.9849 -1.8276 -23.9776 1.0247 1.5355 -27.0162 -18.5863 
0.0000 93.1000 0.0000 57.3132 -9.0843 -3.6301 -70.9423 -0.1299 87.8642 143.9332 61.5797 -56.3730 -12.2571 21.7603 4.7584 -165.3911 1.8273 -175.0794 -144.4044 39.7913 -175.1976 -0.4142 -15.3529 -30.8575 -54.8916 59.8753 -72.9973 9.3683 7.1721 -52.0973 -0.1825 -0.2357 -0.1330 -2.0700 5.9907 37.9162 -82.4079 -37.6458 84.0699 19.3457 0.5068 91.7004 0.2272 -0.5656 0.0965 9.7123 22.3111 95.2214 -51.2467 84.7556 50.1996 1.2762 -9.3838 -1.2319 5.4520 -15.7377 18.9584 -40.3433 -20.6357 98.3657 2.1424 48.8327 4.4981 -0.6835 -20.9337 0.7830 1.9715 -28.9216 -16.6576 
0.0000 93.1000 0.0000 57.7547 -6.0322 1.1133 -70.9447 -0.1222 87.8746 141.8546 64.5400 -55.0619 -12.6322 22.3761 5.7500 -163.5202 4.0913 -178.0228 -143.4145 42.6170 -173.6161 -0.2267 -14.7047 -28.5935 -57.2481 64.1865 -66.2562 9.0076 6.1611 -55.2276 -0.4070 -0.1919 0.3274 -2.1364 5.6406 37.0321 -80.8039 -41.9245 82.4321 25.8371 2.7642 96.0428 0.2019 -0.6333 0.0105 7.6376 24.0363 97.0966 -58.4598 84.5407 54.5284 0.2929 -8.1955 -0.9181 6.5051 -16.8767 20.0986 -51.3159 -22.6212 87.2259 1.0308 36.1754 11.2818 2.7624 -9.8533 -0.2150 1.6189 -31.9429 -18.1806 
0.0000 93.1000 0.0000 59.6310 -4.4362 5.8476 -70.9824 0.0102 87.8707 143.6600 66.8059 -56.6464 -12.8288 23.5797 5.9467 -163.1713 6.1226 -178.3908 -147.7931 45.0841 -170.2687 -0.7174 -14.5401 -28.6668 -66.7832 66.0193 -56.4931 7.2676 5.0836 -55.2935 -0.2367 0.3971 0.0400 -2.1292 5.6144 35.8515 -77.6857 -43.0020 81.3030 26.7152 3.7164 96.7212 0.0175 0.0374 -0.4837 0.7501 25.2862 100.1698 -45.8270 83.6760 37.7318 0.4425 -7.6035 -1.3166 7.3516 -17.7796 18.5905 -61.3884 -22.2703 73.6584 -2.2752 25.6239 14.1172 6.5212 5.0563 -1.5324 2.0802 -30.4344 -9.6905 
0.0000 93.1000 0.0000 56.9898 -2.1827 8.8883 -70.9990 0.1256 87.8057 136.9131 69.7624 -50.0207 -10.5979 24.7281 4.9527 -166.5253 7.5969 179.4298 -150.5957 47.4732 -170.8125 -1.0091 -14.3715 -29.4251 -72.9074 65.1653 -53.3169 3.0580 2.5368 -54.0433 0.2108 0.8150 -0.1042 -2.0329 6.1388 35.4907 -77.1638 -43.5239 80.8009 26.1457 1.9876 94.8114 -0.5159 0.5250 -0.4971 -3.0988 21.9695 102.4715 -30.5849 80.8180 20.9761 -0.9182 -13.6452 -1.8326 6.4659 -15.2639 14.8862 -64.3385 -17.3348 76.4404 -3.6008 23.0677 9.8739 0.7691 13.8002 -1.1347 2.0568 -16.2147 -17.1755 
0.0000 93.1000 0.0000 53.7844 1.4088 11.3507 -71.0313 0.0922 87.8023 127.7112 70.4589 -42.3593 -9.0622 24.4462 3.1149 -166.1743 9.5317 175.9503 -152.6563 49.2858 -169.1765 -0.9709 -14.9518 -31.9507 -78.4186 59.1294 -51.2816 3.3928 1.6612 -55.3707 -0.1264 0.5606 -0.1581 -2.0921 6.2249 36.7294 -75.4602 -43.3706 79.2724 24.1306 -1.0671 87.6898 -0.3180 0.3654 -0.2469 -7.1052 18.4020 102.8530 -22.4756 78.7021 9.2070 -1.3614 -19.1294 -1.8364 5.4441 -14.8393 18.6798 -61.5415 -10.6968 89.8325 -0.3213 32.1879 -9.9051 -5.7692 10.8245 0.0941 2.3235 -9.8630 -17.8943 
0.0000 93.1000 0.0000 52.4812 6.3215 15.7165 -71.0556 0.0972 87.8377 123.9089 69.6386 -39.8618 -7.8836 23.6255 1.9342 -166.1317 11.1570 174.5455 -153.9029 50.8430 -167.2309 -1.1558 -14.9573 -34.5460 -82.9523 52.6858 -52.4206 3.0515 1.9450 -56.3428 -0.0902 0.6347 -0.0578 -2.1184 6.0943 38.3312 -75.2253 -42.9834 77.3288 21.7856 -4.8741 77.7645 -0.2235 0.5001 -0.0771 -9.1862 14.2015 101.7797 -22.0455 78.8418 10.4368 0.0973 -20.5876 -2.3322 5.8473 -15.0469 14.8554 -55.3906 -5.2383 92.7953 0.6957 48.9774 -7.8621 -4.0724 7.1529 0.3324 2.4088 -11.0349 -17.0296 
0.0000 93.1000 0.0000 51.6627 11.7592 18.8978 -71.0774 0.0711 87.8836 124.1056 68.0475 -43.6345 -6.7791 22.5952 1.8945 -168.1634 12.8681 170.0836 -150.9488 52.1458 -168.9115 -1.1203 -14.9724 -35.9923 -85.8427 45.8599 -57.2516 4.3931 2.1323 -59.2491 -0.0942 0.5854 -0.0188 -2.2496 6.0039 40.9448 -70.7639 -41.5447 77.9512 17.2376 -7.7388 66.9951 -0.1124 0.4852 0.0440 -12.4044 9.2943 100.4419 -22.6566 78.5960 8.8465 0.3384 -18.2213 -2.2758 7.9284 -18.0304 17.2461 -47.5205 -1.0288 90.9084 4.7054 65.6644 -8.0840 -2.6204 7.5142 0.0924 2.1594 -13.7565 -10.0630 
0.0000 93.1000 0.0000 50.3377 17.0230 20.7677 -71.1064 0.0618 87.9046 124.7001 66.3018 -46.7587 -5.4055 20.5641 2.2277 -167.0021 13.8144 170.7305 -151.4779 53.1174 -166.4501 -1.3358 -16.0219 -35.8842 -89.7509 40.9422 -62.1726 7.1719 2.7671 -66.0134 0.0689 0.6130 -0.1533 -2.3736 6.2533 42.7259 -69.4263 -42.9545 74.4049 13.9729 -10.0014 57.4091 0.0157 0.5398 -0.3674 -18.9784 4.2823 100.1467 -21.2225 76.6843 4.1355 0.7621 -19.6948 -2.4373 9.0217 -19.7528 18.1663 -36.8571 1.0229 89.2561 26.0518 81.6324 -27.0872 -3.7367 5.4306 0.4024 2.1427 -17.3521 -10.6706 
0.0000 93.1000 0.0000 47.6100 21.2695 24.5150 -71.1324 -0.1144 87.8991 120.9232 65.3875 -41.4931 -4.3171 19.0086 1.6903 -166.0408 14.6406 170.0641 -151.5814 53.8796 -165.0110 -0.7561 -15.6293 -35.0021 -92.0989 39.1278 -68.0406 12.1433 3.3749 -74.4456 -0.4654 0.0599 0.4022 -2.5112 6.1839 44.0097 -64.6834 -45.3098 71.1281 11.7637 -11.1439 49.3781 0.3311 -0.0572 0.0801 -23.1691 1.2639 97.9698 -17.9801 74.6944 -3.4549 1.8632 -23.7043 -2.4620 8.8251 -19.7079 21.0106 -23.0172 1.8655 85.1967 139.9873 82.9218 -145.0083 -6.9439 4.9628 0.8197 2.0349 -21.8205 -13.1756 
0.0000 93.1000 0.0000 46.4606 25.1142 29.7332 -71.1320 -0.1120 87.8763 119.0855 63.8643 -37.0938 -4.0085 16.8253 2.8572 -166.1545 14.8710 168.8128 -153.2229 54.1974 -166.2197 -0.6307 -14.2839 -32.0601 -92.6179 39.7819 -72.2100 15.9921 0.6368 -85.4296 -0.3351 0.0767 0.2822 -2.5865 5.8309 45.1662 -60.0711 -48.0161 66.0822 12.3991 -12.9075 46.8823 0.0324 0.0450 0.1208 -30.8311 1.4864 95.0971 -13.3940 70.6760 -10.9248 0.7950 -25.7793 -2.5949 9.6481 -19.1368 19.9031 -10.4028 2.4844 82.8969 158.5681 79.5268 -167.0226 -10.3958 2.9224 1.5709 2.1166 -22.3956 -15.2993 
0.0000 93.1000 0.0000 45.4859 27.8753 32.9507 -71.1270 -0.1006 87.8630 119.0863 62.7468 -35.1187 -3.9983 15.0891 3.8779 -165.0010 13.9113 169.5811 -151.8710 52.8739 -166.8332 -0.6075 -13.8925 -29.1603 -91.9678 41.9640 -74.1730 16.1968 -1.9697 -96.1810 0.0559 0.1114 -0.0888 -2.6755 5.9920 46.0251 -61.6807 -49.5194 55.4183 13.6288 -12.7444 48.3124 0.0838 0.1668 0.0688 -40.0393 2.1914 94.1680 -10.1110 63.5418 -15.4641 0.1749 -20.0460 -2.3121 13.0850 -25.9569 12.3679 -1.2415 2.0249 80.6498 154.7183 80.9615 -161.1631 -9.7568 1.9098 1.4055 2.5236 -21.0732 -23.3585 
0.0000 93.1000 0.0000 46.4472 30.3683 33.9668 -71.0906 -0.1055 87.8777 119.3332 61.9318 -34.2417 -5.0700 13.6289 5.0351 -163.2351 12.9976 168.4751 -145.5704 51.3313 -173.1016 -0.0914 -12.8764 -27.0302 -89.8607 43.8929 -75.1766 17.2541 -5.3354 -104.2211 -0.2895 -0.1582 0.0199 -2.6154 6.0036 46.2091 -65.7862 -50.1939 45.1812 12.1201 -11.3003 49.9624 0.2141 -0.0827 0.3463 -51.8934 2.5575 92.2875 -6.2446 53.6425 -17.4927 -3.1697 -11.6667 -0.7985 12.8793 -27.1515 3.1446 2.8694 1.6793 80.7710 69.9564 85.8901 -75.8581 -9.9838 2.0060 1.2044 2.1007 -21.6276 -19.5399 
0.0000 93.1000 0.0000 45.4951 31.3877 35.1712 -71.0797 0.0499 87.9121 117.1312 61.7215 -29.5204 -4.6569 12.9577 4.7329 -162.9961 12.8128 170.6981 -146.4500 51.2771 -175.7843 -0.7380 -12.9818 -26.4164 -87.5981 45.1019 -73.6315 17.7572 -7.0505 -108.3717 0.2108 0.5049 -0.6297 -2.4165 6.0364 45.0413 -69.9562 -49.2605 40.0998 12.9054 -11.9227 49.8912 -0.5670 0.6421 -0.4345 -61.1508 2.1162 88.8724 -5.4167 42.5284 -18.3504 -9.1584 5.0703 0.9354 10.6402 -26.2864 -10.0517 3.5590 1.8488 79.8955 6.8331 71.9423 -11.9426 -3.9764 1.6689 0.5702 2.0081 -19.1608 -14.4055 
